HIERARCHY
ROOT Hips
{
	OFFSET -3.958830 18.904000 13.208200
	CHANNELS 6 Xposition Yposition Zposition Zrotation Yrotation Xrotation 
	JOINT LHipJoint
	{
		OFFSET 0.000000 0.000000 0.000000
		CHANNELS 3 Zrotation Yrotation Xrotation
		JOINT LeftUpLeg
		{
			OFFSET 1.800000 -1.400000 0.085000
			CHANNELS 3 Zrotation Yrotation Xrotation
			JOINT LeftLeg
			{
				OFFSET 2.215000 -6.000000 0.000000
				CHANNELS 3 Zrotation Yrotation Xrotation
				JOINT LeftFoot
				{
					OFFSET 2.500000 -6.900000 0.000000
					CHANNELS 3 Zrotation Yrotation Xrotation
					JOINT LeftToeBase
					{
						OFFSET 0.200000 -0.500000 1.950000
						CHANNELS 3 Zrotation Yrotation Xrotation
						End Site
						{
							OFFSET 0.000000 0.000000 0.000000
						}
					}
				}
			}
		}
	}
	JOINT RHipJoint
	{
		OFFSET 0.000000 0.000000 0.000000
		CHANNELS 3 Zrotation Yrotation Xrotation
		JOINT RightUpLeg
		{
			OFFSET -1.800000 -1.400000 0.085000
			CHANNELS 3 Zrotation Yrotation Xrotation
			JOINT RightLeg
			{
				OFFSET -2.215000 -6.000000 0.000000
				CHANNELS 3 Zrotation Yrotation Xrotation
				JOINT RightFoot
				{
					OFFSET -2.500000 -6.900000 0.000000
					CHANNELS 3 Zrotation Yrotation Xrotation
					JOINT RightToeBase
					{
						OFFSET -0.200000 -0.500000 1.950000
						CHANNELS 3 Zrotation Yrotation Xrotation
						End Site
						{
							OFFSET 0.000000 0.000000 0.000000
						}
					}
				}
			}
		}
	}
	JOINT LowerBack
	{
		OFFSET 0.000000 0.000000 0.000000
		CHANNELS 3 Zrotation Yrotation Xrotation
		JOINT Spine
		{
			OFFSET -0.087000 1.940000 -0.288900
			CHANNELS 3 Zrotation Yrotation Xrotation
			JOINT Spine1
			{
				OFFSET 0.000000 1.950000 0.060000
				CHANNELS 3 Zrotation Yrotation Xrotation
				JOINT Neck
				{
					OFFSET 0.000000 0.000000 0.000000
					CHANNELS 3 Zrotation Yrotation Xrotation
					JOINT Neck1
					{
						OFFSET 0.000000 1.600000 0.340000
						CHANNELS 3 Zrotation Yrotation Xrotation
						JOINT Head
						{
							OFFSET 0.000000 1.667000 -0.240000
							CHANNELS 3 Zrotation Yrotation Xrotation
							End Site
							{
								OFFSET 0.000000 0.000000 0.000000
							}
						}
					}
				}
				JOINT LeftShoulder
				{
					OFFSET 0.000000 0.000000 0.000000
					CHANNELS 3 Zrotation Yrotation Xrotation
					JOINT LeftArm
					{
						OFFSET 2.700000 1.550000 -0.730000
						CHANNELS 3 Zrotation Yrotation Xrotation
						JOINT LeftForeArm
						{
							OFFSET 5.450000 0.000000 0.000000
							CHANNELS 3 Zrotation Yrotation Xrotation
							JOINT LeftHand
							{
								OFFSET 3.450000 0.000000 0.000000
								CHANNELS 3 Zrotation Yrotation Xrotation
								JOINT LeftHandIndex1
								{
									OFFSET 0.750000 0.000000 0.000000
									CHANNELS 3 Zrotation Yrotation Xrotation
									End Site
									{
										OFFSET 0.000000 0.000000 0.000000
									}
								}
							}
						}
					}
				}
				JOINT RightShoulder
				{
					OFFSET 0.000000 0.000000 0.000000
					CHANNELS 3 Zrotation Yrotation Xrotation
					JOINT RightArm
					{
						OFFSET -2.700000 1.550000 -0.730000
						CHANNELS 3 Zrotation Yrotation Xrotation
						JOINT RightForeArm
						{
							OFFSET -5.450000 0.000000 0.000000
							CHANNELS 3 Zrotation Yrotation Xrotation
							JOINT RightHand
							{
								OFFSET -3.450000 0.000000 0.000000
								CHANNELS 3 Zrotation Yrotation Xrotation
								JOINT RightHandIndex1
								{
									OFFSET -0.750000 0.000000 0.000000
									CHANNELS 3 Zrotation Yrotation Xrotation
									End Site
									{
										OFFSET 0.000000 0.000000 0.000000
									}
								}
							}
						}
					}
				}
			}
		}
	}
}
MOTION
Frames: 14
Frame Time: 0.016667
0.740960 15.328010 -0.488500 -2.324661 -12.776174 -2.396017 -15.239583 12.672760 2.497092 8.416256 -3.799419 -23.106073 3.726588 9.564472 50.690570 -0.071416 9.377567 1.414075 0.709750 0.034440 0.553590 18.408844 -8.833785 4.832318 -25.778470 6.907533 -31.284105 42.778576 -26.925555 38.386683 -1.924566 -10.454216 1.048606 0.240210 0.366220 0.221760 -3.684968 -2.908209 -8.411385 8.055867 -0.810535 17.827571 -3.626804 0.912901 1.138260 -0.139032 -9.164364 -6.751715 -19.408992 12.157500 30.796578 0.731450 3.613900 -12.658190 -28.153263 -3.754732 -0.330091 -37.261049 -7.195526 -3.272862 -22.032140 -40.622377 5.266229 -3.764985 3.021342 0.808150 0.132490 -0.155610 0.349530 27.909012 10.246884 4.315696 35.336969 6.390190 -6.798526 35.497019 49.881774 13.037255 1.659123 -1.631663 -0.416840 0.485900 0.002010 -0.455890 
0.731210 15.305020 -0.494710 -2.624545 -13.217638 -2.668374 -15.254631 12.633429 2.450385 8.738097 -3.571277 -23.173034 4.044891 9.730497 51.383395 -0.047368 9.508201 1.357972 0.715260 0.030250 0.580950 18.409561 -8.716492 4.993223 -27.352294 7.069076 -31.693189 45.654656 -28.077776 37.924718 -2.015659 -10.640353 0.993922 0.232400 0.337320 0.226470 -3.668857 -2.929500 -8.505420 8.053666 -0.592483 18.292689 -3.461537 1.141005 0.902850 0.016465 -8.955807 -6.781386 -19.105318 12.176663 31.775074 0.340780 3.855180 -13.045510 -28.708254 -3.981416 -0.275029 -37.052674 -6.551433 -3.431455 -20.688245 -38.242260 4.361817 -3.752584 2.991652 0.831830 0.115390 -0.133730 0.336270 28.164944 10.520485 4.274106 35.653763 6.856976 -6.697809 36.451847 49.070775 13.150933 1.675030 -1.616098 -0.414020 0.475940 -0.001890 -0.471230 
0.713760 15.266880 -0.501500 -3.216582 -14.064658 -3.681418 -15.271183 12.647665 2.343405 8.999447 -3.077834 -23.104648 5.845600 9.459094 53.337577 0.018815 9.737126 1.277401 0.740790 0.064200 0.625620 18.405122 -8.544950 5.272739 -30.335921 7.357171 -31.834988 51.503556 -29.844976 36.311648 -2.167436 -10.828986 0.969424 0.237640 0.281180 0.195640 -3.638016 -3.018516 -8.676067 8.247261 -0.373757 19.863630 -3.179234 1.457511 0.071424 0.236380 -8.802436 -6.891409 -19.211690 12.534038 34.029609 -0.195990 4.253150 -14.194680 -30.561250 -4.498702 -0.062750 -36.139777 -4.570298 -3.842850 -18.726608 -33.584766 2.955696 -3.690797 2.913741 0.880630 0.069610 -0.086260 0.333330 29.583726 11.305404 4.172393 35.479817 7.716339 -6.606881 37.253061 47.209363 12.884456 1.694671 -1.571653 -0.417100 0.495810 -0.033450 -0.490510 
0.702320 15.233330 -0.494480 -3.822694 -14.860095 -4.606461 -15.268244 12.690238 2.256742 8.992533 -2.661303 -22.964487 7.782346 8.968697 55.225218 0.125985 9.951587 1.195679 0.746740 0.062850 0.658970 18.411451 -8.437024 5.488220 -33.561931 7.251399 -31.265087 57.312874 -30.277518 33.003132 -2.225895 -10.721876 0.992864 0.205560 0.223380 0.216320 -3.647542 -3.086173 -8.813420 8.919611 -0.383603 21.036189 -3.418137 1.576130 -0.835228 0.661190 -8.508443 -7.262931 -19.062548 13.071188 36.653578 -0.923870 4.891060 -14.171950 -32.564906 -5.228831 0.399106 -35.196196 -2.087640 -3.959102 -16.060738 -27.504825 1.423792 -3.644214 2.896184 0.902580 0.036880 -0.038190 0.315690 30.760605 12.064619 4.296565 36.066460 7.898064 -6.702710 39.359846 46.333409 13.329097 1.731606 -1.576385 -0.379890 0.451490 -0.048260 -0.498610 
0.690170 15.208370 -0.484510 -4.222132 -15.258166 -5.590916 -15.281145 12.801451 2.168163 8.725115 -2.199854 -22.688310 9.752501 8.188652 56.203363 0.157852 10.006637 1.157402 0.750100 0.051690 0.695390 18.391347 -8.370792 5.640214 -36.757855 7.078258 -29.801409 61.971791 -29.559692 29.294625 -2.227531 -10.470777 1.055030 0.180440 0.161310 0.223440 -3.582499 -3.229691 -8.915957 9.143964 -0.176744 22.140805 -3.304865 1.835044 -1.648295 1.070715 -8.071476 -7.640992 -18.667276 13.325010 39.491567 -1.696940 5.346910 -14.704170 -34.222273 -5.700292 0.736099 -34.611447 -0.059419 -3.500213 -13.570255 -20.573130 0.157127 -3.612380 2.832670 0.948830 -0.000020 0.005190 0.289070 31.677064 12.525697 4.449265 36.566362 7.639296 -6.881236 42.477852 46.305654 14.446718 1.748448 -1.573080 -0.366340 0.424100 -0.051630 -0.524790 
0.660950 15.181490 -0.470220 -4.591225 -15.485258 -5.984853 -15.280100 12.835951 2.068368 8.505698 -1.655162 -22.818795 11.675416 7.410558 56.815085 0.199374 10.041344 1.138873 0.728110 0.024050 0.702810 18.402144 -8.317478 5.801257 -39.864660 6.968655 -28.350618 65.905326 -27.710167 25.029884 -2.178018 -10.145487 1.133537 0.149560 0.144000 0.241750 -3.592275 -3.210557 -8.985380 9.445687 0.186718 22.195941 -3.486953 2.188691 -1.945947 1.385505 -7.412085 -7.973030 -17.438317 13.363770 41.512218 -2.161560 5.900470 -14.020530 -35.236688 -6.160215 1.116847 -34.033339 1.491280 -2.336825 -11.537910 -11.956966 -0.879798 -3.651473 2.752705 0.951560 0.000310 0.022440 0.267390 32.099737 12.718544 4.527669 37.892223 7.364938 -6.876456 46.147480 46.342314 15.743384 1.771098 -1.587411 -0.350660 0.396530 -0.042860 -0.530060 
0.619610 15.163220 -0.464260 -5.188721 -15.289378 -5.711423 -15.268194 12.772273 2.004635 8.889140 -1.127734 -23.635335 12.947437 7.113033 57.569542 0.240650 10.161979 1.087878 0.706490 0.000350 0.696710 18.436617 -8.243889 5.953999 -41.973154 7.053478 -26.904883 68.123690 -24.238999 20.160720 -2.070662 -9.683426 1.249081 0.129540 0.140430 0.251300 -3.666730 -3.056776 -9.046442 10.032393 0.471906 21.681428 -3.686343 2.540667 -1.964105 1.568602 -6.920238 -8.190560 -16.163879 13.077054 42.212009 -2.100070 6.119910 -13.432900 -35.631471 -6.360407 1.477855 -34.007062 2.795525 -1.160973 -9.415208 -3.830545 -1.585563 -3.720760 2.672814 0.944290 0.005100 0.023100 0.251630 32.112017 12.798957 4.484965 39.270852 7.513264 -6.536953 49.729708 46.295849 17.079955 1.791754 -1.606654 -0.342880 0.376100 -0.031860 -0.530310 
0.563070 15.161940 -0.462330 -5.259237 -14.921606 -5.237708 -15.283562 12.714208 1.915678 8.962392 -0.562554 -24.234849 13.898558 6.836876 57.419066 0.263677 10.121622 1.098639 0.695910 -0.010590 0.677150 18.447347 -8.154389 6.119511 -43.694748 7.221573 -25.270612 68.464065 -20.171387 15.467047 -1.939080 -9.210895 1.373419 0.116360 0.149210 0.260510 -3.663092 -2.933584 -9.083774 9.525077 0.932174 20.613168 -3.228022 2.797495 -1.773465 1.507287 -6.693174 -8.348607 -15.325274 12.986785 42.207958 -1.549070 6.251130 -12.260300 -35.619178 -6.331043 1.946858 -34.253473 4.311267 -0.347677 -7.922500 2.656526 -1.906422 -3.783817 2.653786 0.917720 0.015910 0.008990 0.254780 32.336943 12.979931 4.366996 39.868397 8.215201 -5.732213 52.935698 46.492366 18.615310 1.810341 -1.653077 -0.327470 0.347030 -0.032130 -0.518470 
0.495600 15.188140 -0.467850 -5.216511 -14.636742 -4.914282 -15.296310 12.725093 1.780423 8.940174 0.128353 -24.284870 14.718888 6.396307 55.946459 0.222057 9.860861 1.196962 0.661880 -0.052260 0.652860 18.441770 -8.116537 6.257842 -44.551355 7.666808 -23.316142 67.292787 -16.412575 11.499285 -1.809576 -8.781204 1.498624 0.090940 0.177980 0.252980 -3.632840 -2.841052 -9.072900 8.816991 1.314708 19.505851 -2.519737 2.941790 -1.296495 1.406836 -6.802557 -8.788918 -15.373223 13.279618 42.718503 -1.398710 6.521670 -11.036380 -34.945930 -6.428318 2.703667 -35.362410 6.303368 0.046991 -6.090877 8.169839 -1.901445 -3.855202 2.609236 0.910480 0.028880 -0.008990 0.258390 32.065470 13.637621 4.388336 40.459635 9.392121 -4.713371 55.825902 46.418237 20.028391 1.829247 -1.659777 -0.341730 0.354210 -0.021890 -0.511330 
0.423670 15.227840 -0.463140 -4.922750 -14.597300 -4.748858 -15.288864 12.762995 1.572433 8.919550 1.018282 -23.483626 15.228990 6.041172 53.625481 0.121510 9.482348 1.339329 0.638270 -0.090850 0.635910 18.449128 -8.172349 6.363803 -45.108519 8.186930 -21.363030 64.857263 -13.337540 8.359593 -1.689318 -8.444890 1.595556 0.082790 0.217880 0.247000 -3.648297 -2.632701 -8.970419 7.996393 1.819589 18.226655 -2.152701 3.148975 -0.722188 1.165300 -6.969245 -8.699644 -15.336650 13.475531 42.635176 -1.265230 6.682740 -10.434860 -34.183253 -5.645177 2.998487 -35.830135 7.983915 0.285141 -4.625398 12.783722 -1.741179 -3.928761 2.562267 0.917210 0.047540 -0.030640 0.268740 31.862489 13.366338 4.031944 41.440100 10.837163 -3.318965 58.637585 46.800701 21.829753 1.834689 -1.657982 -0.374670 0.380640 -0.009120 -0.512470 
0.350280 15.277100 -0.456250 -4.874009 -14.286629 -4.023945 -15.267852 12.753650 1.403768 8.990158 1.680024 -23.100450 15.513613 5.715302 50.984744 0.020416 9.049746 1.500755 0.580170 -0.153150 0.572430 18.469144 -8.267532 6.391089 -44.762671 8.561246 -19.550559 61.678056 -10.852878 5.622372 -1.545078 -8.164130 1.676611 0.063280 0.289910 0.241910 -3.710253 -2.354617 -8.816456 7.587745 2.390451 16.433754 -1.699249 3.451358 -0.094658 0.817900 -7.236497 -8.485847 -15.325991 13.638666 41.221474 -0.574930 6.643280 -8.932350 -33.138827 -4.582005 3.115827 -36.653901 9.329258 0.323552 -1.940475 15.971420 -1.125799 -4.034843 2.554641 0.882220 0.090960 -0.087050 0.271330 31.551281 12.770756 3.869205 42.072506 11.536307 -2.094174 62.405718 49.001955 25.043606 1.848023 -1.676084 -0.403700 0.394910 0.028630 -0.495240 
0.268840 15.345730 -0.445880 -4.687928 -13.738526 -3.205025 -15.245346 12.759294 1.228536 9.187622 2.263157 -22.272456 15.033979 5.586102 47.366335 -0.094732 8.406914 1.737723 0.559030 -0.177360 0.531210 18.476935 -8.411000 6.368903 -43.782900 8.843226 -17.595505 58.140233 -8.877353 3.246687 -1.432174 -7.911213 1.757002 0.050000 0.331320 0.235980 -3.751363 -2.059158 -8.618542 7.014050 3.142061 14.523298 -0.912587 3.934597 0.600264 0.408884 -7.816369 -8.571186 -16.153377 13.701602 40.029954 0.189280 6.176200 -7.960530 -30.935862 -3.447407 3.278829 -38.681697 10.455939 -0.058541 1.295939 17.337316 -0.228480 -4.092408 2.579498 0.855110 0.105750 -0.118890 0.291300 30.285850 12.485369 4.067030 42.759018 11.926239 -0.889979 67.513240 51.203779 29.041604 1.880410 -1.706798 -0.408400 0.399210 0.033010 -0.471860 
0.160540 15.420280 -0.428340 -4.456118 -12.928000 -2.125176 -15.258791 12.751248 1.052076 9.685755 2.772737 -21.462977 14.124743 5.534760 42.962504 -0.213845 7.628716 2.030747 0.531210 -0.190400 0.461560 18.449082 -8.590260 6.256928 -42.090843 8.904159 -15.914570 54.784832 -7.683766 1.653087 -1.326551 -7.734655 1.826117 0.042530 0.390470 0.227970 -3.687719 -1.722884 -8.333430 5.294012 4.259200 12.054561 0.985415 4.625273 1.153054 -0.297357 -8.174472 -8.192808 -16.227301 13.418559 38.083161 1.267660 5.514850 -6.605760 -27.689592 -1.158501 3.128917 -41.381426 11.525769 -0.996916 5.833826 14.900548 0.643753 -4.136675 2.624392 0.792750 0.136560 -0.168260 0.321520 28.675693 11.069080 3.861821 43.190734 12.213665 0.615899 72.502967 53.242296 33.361147 1.914585 -1.749781 -0.403760 0.397860 0.036480 -0.430530 
0.039450 15.508590 -0.422180 -4.197186 -11.918959 -1.130231 -15.274897 12.736504 0.940674 10.380115 3.086078 -20.791844 12.655563 5.638943 38.487092 -0.347562 6.905048 2.315137 0.464690 -0.257500 0.391690 18.402535 -8.812392 6.069074 -39.782495 8.803631 -14.429938 51.327904 -6.988634 0.704588 -1.210293 -7.574747 1.895560 0.013310 0.468960 0.227010 -3.591224 -1.370929 -8.060880 3.026321 5.344777 9.892629 2.404102 5.318148 1.970090 -0.711205 -7.636535 -8.124388 -14.470913 12.549644 36.481220 1.806470 5.179970 -5.030920 -24.756389 -0.235405 3.385917 -42.085277 12.544818 -1.693111 8.172713 13.684200 0.977984 -4.212535 2.627314 0.740050 0.191550 -0.228960 0.329260 26.885818 10.234360 3.942480 44.545189 12.434325 1.573071 76.447741 56.067853 37.460780 1.950524 -1.738029 -0.424480 0.404850 0.067950 -0.406370 
